{
  "accessors": [
    {
      "bufferView": 2,
      "componentType": 5126,
      "count": 65532,
      "max": [
        62.293800354003906,
        62.444000244140625,
        61.976600646972656
      ],
      "min": [
        -62.17900085449219,
        -62.17900085449219,
        -62.2775993347168
      ],
      "type": "VEC3"
    },
    {
      "bufferView": 2,
      "byteOffset": 786384,
      "componentType": 5126,
      "count": 65532,
      "max": [
        1.0,
        1.0,
        1.0
      ],
      "min": [
        -1.0,
        -1.0,
        -1.0
      ],
      "type": "VEC3"
    },
    {
      "bufferView": 1,
      "componentType": 5126,
      "count": 65532,
      "max": [
        763.375,
        885.5
      ],
      "min": [
        -2219.75,
        -1280.5
      ],
      "type": "VEC2"
    },
    {
      "bufferView": 1,
      "byteOffset": 524256,
      "componentType": 5126,
      "count": 65532,
      "max": [
        763.375,
        885.5
      ],
      "min": [
        -2219.75,
        -1280.5
      ],
      "type": "VEC2"
    },
    {
      "bufferView": 1,
      "byteOffset": 1048512,
      "componentType": 5126,
      "count": 65532,
      "max": [
        763.375,
        885.5
      ],
      "min": [
        -2219.75,
        -1280.5
      ],
      "type": "VEC2"
    },
    {
      "bufferView": 1,
      "byteOffset": 1572768,
      "componentType": 5126,
      "count": 65532,
      "max": [
        763.375,
        885.5
      ],
      "min": [
        -2219.75,
        -1280.5
      ],
      "type": "VEC2"
    },
    {
      "bufferView": 0,
      "componentType": 5125,
      "count": 333375,
      "type": "SCALAR"
    },
    {
      "bufferView": 2,
      "byteOffset": 1572768,
      "componentType": 5126,
      "count": 63534,
      "max": [
        59.614498138427734,
        59.79560089111328,
        55.657798767089844
      ],
      "min": [
        -59.802398681640625,
        -59.79560089111328,
        -59.802398681640625
      ],
      "type": "VEC3"
    },
    {
      "bufferView": 2,
      "byteOffset": 2335176,
      "componentType": 5126,
      "count": 63534,
      "max": [
        0.9999999403953552,
        0.9999780058860779,
        0.9999977350234985
      ],
      "min": [
        -0.9999977350234985,
        -0.9999793767929077,
        -0.999999463558197
      ],
      "type": "VEC3"
    },
    {
      "bufferView": 1,
      "byteOffset": 2097024,
      "componentType": 5126,
      "count": 63534,
      "max": [
        0.9603000283241272,
        0.9934999942779541
      ],
      "min": [
        0.03099999949336052,
        0.005100000184029341
      ],
      "type": "VEC2"
    },
    {
      "bufferView": 1,
      "byteOffset": 2605296,
      "componentType": 5126,
      "count": 63534,
      "max": [
        0.9603000283241272,
        0.9934999942779541
      ],
      "min": [
        0.03099999949336052,
        0.005100000184029341
      ],
      "type": "VEC2"
    },
    {
      "bufferView": 1,
      "byteOffset": 3113568,
      "componentType": 5126,
      "count": 63534,
      "max": [
        0.9603000283241272,
        0.9934999942779541
      ],
      "min": [
        0.03099999949336052,
        0.005100000184029341
      ],
      "type": "VEC2"
    },
    {
      "bufferView": 1,
      "byteOffset": 3621840,
      "componentType": 5126,
      "count": 63534,
      "max": [
        0.9603000283241272,
        0.9934999942779541
      ],
      "min": [
        0.03099999949336052,
        0.005100000184029341
      ],
      "type": "VEC2"
    },
    {
      "bufferView": 0,
      "byteOffset": 1333500,
      "componentType": 5125,
      "count": 316137,
      "type": "SCALAR"
    },
    {
      "bufferView": 2,
      "byteOffset": 3097584,
      "componentType": 5126,
      "count": 2788,
      "max": [
        6.431600093841553,
        24.48889923095703,
        62.25740051269531
      ],
      "min": [
        -22.977399826049805,
        -4.973299980163574,
        57.01839828491211
      ],
      "type": "VEC3"
    },
    {
      "bufferView": 2,
      "byteOffset": 3131040,
      "componentType": 5126,
      "count": 2788,
      "max": [
        0.9998224377632141,
        0.999086856842041,
        0.9999966025352478
      ],
      "min": [
        -0.9939494132995605,
        -0.9999631643295288,
        -0.9999966621398926
      ],
      "type": "VEC3"
    },
    {
      "bufferView": 1,
      "byteOffset": 4130112,
      "componentType": 5126,
      "count": 2788,
      "max": [
        0.12630000710487366,
        0.22679999470710754
      ],
      "min": [
        0.03319999948143959,
        0.1339000016450882
      ],
      "type": "VEC2"
    },
    {
      "bufferView": 1,
      "byteOffset": 4152416,
      "componentType": 5126,
      "count": 2788,
      "max": [
        0.12630000710487366,
        0.22679999470710754
      ],
      "min": [
        0.03319999948143959,
        0.1339000016450882
      ],
      "type": "VEC2"
    },
    {
      "bufferView": 1,
      "byteOffset": 4174720,
      "componentType": 5126,
      "count": 2788,
      "max": [
        0.12630000710487366,
        0.22679999470710754
      ],
      "min": [
        0.03319999948143959,
        0.1339000016450882
      ],
      "type": "VEC2"
    },
    {
      "bufferView": 1,
      "byteOffset": 4197024,
      "componentType": 5126,
      "count": 2788,
      "max": [
        0.12630000710487366,
        0.22679999470710754
      ],
      "min": [
        0.03319999948143959,
        0.1339000016450882
      ],
      "type": "VEC2"
    },
    {
      "bufferView": 0,
      "byteOffset": 2598048,
      "componentType": 5125,
      "count": 14148,
      "type": "SCALAR"
    },
    {
      "bufferView": 2,
      "byteOffset": 3164496,
      "componentType": 5126,
      "count": 897,
      "max": [
        7.109899997711182,
        131.03109741210938,
        -24.42289924621582
      ],
      "min": [
        5.065000057220459,
        93.0470962524414,
        -26.43670082092285
      ],
      "type": "VEC3"
    },
    {
      "bufferView": 2,
      "byteOffset": 3175260,
      "componentType": 5126,
      "count": 897,
      "max": [
        1.0,
        1.0,
        0.984840989112854
      ],
      "min": [
        -1.0,
        -0.9964069128036499,
        -0.9871493577957153
      ],
      "type": "VEC3"
    },
    {
      "bufferView": 1,
      "byteOffset": 4219328,
      "componentType": 5126,
      "count": 897,
      "max": [
        3.516749858856201,
        1.018887996673584
      ],
      "min": [
        0.9481104612350464,
        0.1851000040769577
      ],
      "type": "VEC2"
    },
    {
      "bufferView": 1,
      "byteOffset": 4226504,
      "componentType": 5126,
      "count": 897,
      "max": [
        3.516749858856201,
        1.018887996673584
      ],
      "min": [
        0.9481104612350464,
        0.1851000040769577
      ],
      "type": "VEC2"
    },
    {
      "bufferView": 1,
      "byteOffset": 4233680,
      "componentType": 5126,
      "count": 897,
      "max": [
        3.516749858856201,
        1.018887996673584
      ],
      "min": [
        0.9481104612350464,
        0.1851000040769577
      ],
      "type": "VEC2"
    },
    {
      "bufferView": 1,
      "byteOffset": 4240856,
      "componentType": 5126,
      "count": 897,
      "max": [
        3.516749858856201,
        1.018887996673584
      ],
      "min": [
        0.9481104612350464,
        0.1851000040769577
      ],
      "type": "VEC2"
    },
    {
      "bufferView": 0,
      "byteOffset": 2654640,
      "componentType": 5125,
      "count": 4638,
      "type": "SCALAR"
    },
    {
      "bufferView": 2,
      "byteOffset": 3186024,
      "componentType": 5126,
      "count": 65532,
      "max": [
        35.64070129394531,
        117.18319702148438,
        35.6348991394043
      ],
      "min": [
        -35.57809829711914,
        59.03020095825195,
        -35.623600006103516
      ],
      "type": "VEC3"
    },
    {
      "bufferView": 2,
      "byteOffset": 3972408,
      "componentType": 5126,
      "count": 65532,
      "max": [
        1.0,
        1.0,
        1.0
      ],
      "min": [
        -1.0,
        -1.0,
        -1.0
      ],
      "type": "VEC3"
    },
    {
      "bufferView": 1,
      "byteOffset": 4248032,
      "componentType": 5126,
      "count": 65532,
      "max": [
        2.148519277572632,
        0.9812999963760376
      ],
      "min": [
        0.01360000018030405,
        0.01269999984651804
      ],
      "type": "VEC2"
    },
    {
      "bufferView": 1,
      "byteOffset": 4772288,
      "componentType": 5126,
      "count": 65532,
      "max": [
        2.148519277572632,
        0.9812999963760376
      ],
      "min": [
        0.01360000018030405,
        0.01269999984651804
      ],
      "type": "VEC2"
    },
    {
      "bufferView": 1,
      "byteOffset": 5296544,
      "componentType": 5126,
      "count": 65532,
      "max": [
        2.148519277572632,
        0.9812999963760376
      ],
      "min": [
        0.01360000018030405,
        0.01269999984651804
      ],
      "type": "VEC2"
    },
    {
      "bufferView": 1,
      "byteOffset": 5820800,
      "componentType": 5126,
      "count": 65532,
      "max": [
        2.148519277572632,
        0.9812999963760376
      ],
      "min": [
        0.01360000018030405,
        0.01269999984651804
      ],
      "type": "VEC2"
    },
    {
      "bufferView": 0,
      "byteOffset": 2673192,
      "componentType": 5125,
      "count": 271278,
      "type": "SCALAR"
    },
    {
      "bufferView": 2,
      "byteOffset": 4758792,
      "componentType": 5126,
      "count": 23909,
      "max": [
        35.64070129394531,
        104.6405029296875,
        35.6348991394043
      ],
      "min": [
        -35.57809829711914,
        59.06439971923828,
        -35.623600006103516
      ],
      "type": "VEC3"
    },
    {
      "bufferView": 2,
      "byteOffset": 5045700,
      "componentType": 5126,
      "count": 23909,
      "max": [
        1.0,
        1.0,
        0.9999943375587463
      ],
      "min": [
        -1.0,
        -1.0,
        -1.0
      ],
      "type": "VEC3"
    },
    {
      "bufferView": 1,
      "byteOffset": 6345056,
      "componentType": 5126,
      "count": 23909,
      "max": [
        2.35548734664917,
        0.8615999817848206
      ],
      "min": [
        0.00021819272660650313,
        0.0024564245250076056
      ],
      "type": "VEC2"
    },
    {
      "bufferView": 1,
      "byteOffset": 6536328,
      "componentType": 5126,
      "count": 23909,
      "max": [
        2.35548734664917,
        0.8615999817848206
      ],
      "min": [
        0.00021819272660650313,
        0.0024564245250076056
      ],
      "type": "VEC2"
    },
    {
      "bufferView": 1,
      "byteOffset": 6727600,
      "componentType": 5126,
      "count": 23909,
      "max": [
        2.35548734664917,
        0.8615999817848206
      ],
      "min": [
        0.00021819272660650313,
        0.0024564245250076056
      ],
      "type": "VEC2"
    },
    {
      "bufferView": 1,
      "byteOffset": 6918872,
      "componentType": 5126,
      "count": 23909,
      "max": [
        2.35548734664917,
        0.8615999817848206
      ],
      "min": [
        0.00021819272660650313,
        0.0024564245250076056
      ],
      "type": "VEC2"
    },
    {
      "bufferView": 0,
      "byteOffset": 3758304,
      "componentType": 5125,
      "count": 91749,
      "type": "SCALAR"
    },
    {
      "bufferView": 2,
      "byteOffset": 5332608,
      "componentType": 5126,
      "count": 1578,
      "max": [
        7.619100093841553,
        96.38800048828125,
        35.870201110839844
      ],
      "min": [
        -9.534199714660645,
        81.12239837646484,
        24.68429946899414
      ],
      "type": "VEC3"
    },
    {
      "bufferView": 2,
      "byteOffset": 5351544,
      "componentType": 5126,
      "count": 1578,
      "max": [
        0.9737328290939331,
        0.999938428401947,
        0.9992332458496094
      ],
      "min": [
        -0.9737330079078674,
        -0.6970787644386292,
        -0.32237452268600464
      ],
      "type": "VEC3"
    },
    {
      "bufferView": 1,
      "byteOffset": 7110144,
      "componentType": 5126,
      "count": 1578,
      "max": [
        0.763700008392334,
        0.49709999561309814
      ],
      "min": [
        0.6682000160217285,
        0.3995000123977661
      ],
      "type": "VEC2"
    },
    {
      "bufferView": 1,
      "byteOffset": 7122768,
      "componentType": 5126,
      "count": 1578,
      "max": [
        0.763700008392334,
        0.49709999561309814
      ],
      "min": [
        0.6682000160217285,
        0.3995000123977661
      ],
      "type": "VEC2"
    },
    {
      "bufferView": 0,
      "byteOffset": 4125300,
      "componentType": 5125,
      "count": 9213,
      "type": "SCALAR"
    },
    {
      "bufferView": 3,
      "componentType": 5126,
      "count": 312,
      "max": [
        10.00999927520752
      ],
      "min": [
        0.03336666524410248
      ],
      "type": "SCALAR"
    },
    {
      "bufferView": 4,
      "componentType": 5126,
      "count": 312,
      "max": [
        0.6312854886054993,
        0.9604207873344421,
        0.6632122993469238,
        1.0
      ],
      "min": [
        -0.6160553693771362,
        -0.5920102000236511,
        -0.496213436126709,
        -0.4637915790081024
      ],
      "type": "VEC4"
    },
    {
      "bufferView": 3,
      "byteOffset": 1248,
      "componentType": 5126,
      "count": 324,
      "max": [
        10.00999927520752
      ],
      "min": [
        0.03336666524410248
      ],
      "type": "SCALAR"
    },
    {
      "bufferView": 4,
      "byteOffset": 4992,
      "componentType": 5126,
      "count": 324,
      "max": [
        0.22349704802036285,
        0.8116642236709595,
        0.1869809478521347,
        1.0
      ],
      "min": [
        -0.15972848236560822,
        -0.3467206060886383,
        -0.07954829931259155,
        0.5676085948944092
      ],
      "type": "VEC4"
    }
  ],
  "animations": [
    {
      "channels": [
        {
          "sampler": 0,
          "target": {
            "node": 6,
            "path": "rotation"
          }
        },
        {
          "sampler": 1,
          "target": {
            "node": 13,
            "path": "rotation"
          }
        }
      ],
      "name": "Animation",
      "samplers": [
        {
          "input": 47,
          "interpolation": "LINEAR",
          "output": 48
        },
        {
          "input": 49,
          "interpolation": "LINEAR",
          "output": 50
        }
      ]
    }
  ],
  "asset": {
    "extras": {
      "author": "StarWars-Universe (https://sketchfab.com/SWU)",
      "license": "CC-BY-NC-SA-4.0 (http://creativecommons.org/licenses/by-nc-sa/4.0/)",
      "source": "https://sketchfab.com/3d-models/bb8-animated-15db7644c5b645f195f4d2dc0c5154ec",
      "title": "BB8 (Animated)"
    },
    "generator": "Sketchfab-12.67.0",
    "version": "2.0"
  },
  "bufferViews": [
    {
      "buffer": 0,
      "byteLength": 4162152,
      "name": "floatBufferViews",
      "target": 34963
    },
    {
      "buffer": 0,
      "byteLength": 7135392,
      "byteOffset": 4162152,
      "byteStride": 8,
      "name": "floatBufferViews",
      "target": 34962
    },
    {
      "buffer": 0,
      "byteLength": 5370480,
      "byteOffset": 11297544,
      "byteStride": 12,
      "name": "floatBufferViews",
      "target": 34962
    },
    {
      "buffer": 0,
      "byteLength": 2544,
      "byteOffset": 16668024,
      "name": "floatBufferViews"
    },
    {
      "buffer": 0,
      "byteLength": 10176,
      "byteOffset": 16670568,
      "byteStride": 16,
      "name": "floatBufferViews"
    }
  ],
  "buffers": [
    {
      "byteLength": 16680744,
      "uri": "scene.bin"
    }
  ],
  "images": [
    {
      "uri": "textures/Scene_Material_baseColor.jpeg"
    },
    {
      "uri": "textures/Scene_Material_metallicRoughness.png"
    },
    {
      "uri": "textures/Scene_Material_emissive.jpeg"
    },
    {
      "uri": "textures/Scene_Material1_baseColor.jpeg"
    },
    {
      "uri": "textures/Scene_Material1_metallicRoughness.png"
    },
    {
      "uri": "textures/Scene_Material1_emissive.jpeg"
    }
  ],
  "materials": [
    {
      "doubleSided": true,
      "emissiveFactor": [
        1.0,
        1.0,
        1.0
      ],
      "emissiveTexture": {
        "index": 2,
        "texCoord": 2
      },
      "name": "Scene_Material",
      "pbrMetallicRoughness": {
        "baseColorTexture": {
          "index": 0
        },
        "metallicFactor": 0.8634172355603872,
        "metallicRoughnessTexture": {
          "index": 1,
          "texCoord": 1
        }
      }
    },
    {
      "doubleSided": true,
      "emissiveFactor": [
        1.0,
        1.0,
        1.0
      ],
      "emissiveTexture": {
        "index": 5,
        "texCoord": 2
      },
      "name": "Scene_Material1",
      "pbrMetallicRoughness": {
        "baseColorTexture": {
          "index": 3
        },
        "metallicFactor": 0.9011530846169911,
        "metallicRoughnessTexture": {
          "index": 4,
          "texCoord": 1
        }
      }
    },
    {
      "alphaMode": "BLEND",
      "doubleSided": true,
      "name": "material",
      "pbrMetallicRoughness": {
        "baseColorFactor": [
          1.0,
          1.0,
          1.0,
          0.9416142109804934
        ],
        "baseColorTexture": {
          "index": 3
        },
        "metallicFactor": 0.07096440537170794,
        "roughnessFactor": 0.1114255317352103
      }
    }
  ],
  "meshes": [
    {
      "name": "BB8:BB8_Body_Scene_Material_0",
      "primitives": [
        {
          "attributes": {
            "NORMAL": 1,
            "POSITION": 0,
            "TEXCOORD_0": 2,
            "TEXCOORD_1": 3,
            "TEXCOORD_2": 4,
            "TEXCOORD_3": 5
          },
          "indices": 6,
          "material": 0,
          "mode": 4
        }
      ]
    },
    {
      "name": "BB8:BB8_Body_Scene_Material_0",
      "primitives": [
        {
          "attributes": {
            "NORMAL": 8,
            "POSITION": 7,
            "TEXCOORD_0": 9,
            "TEXCOORD_1": 10,
            "TEXCOORD_2": 11,
            "TEXCOORD_3": 12
          },
          "indices": 13,
          "material": 0,
          "mode": 4
        }
      ]
    },
    {
      "name": "BB8:Hatch_Door_Scene_Material_0",
      "primitives": [
        {
          "attributes": {
            "NORMAL": 15,
            "POSITION": 14,
            "TEXCOORD_0": 16,
            "TEXCOORD_1": 17,
            "TEXCOORD_2": 18,
            "TEXCOORD_3": 19
          },
          "indices": 20,
          "material": 0,
          "mode": 4
        }
      ]
    },
    {
      "name": "BB8:Antena_Scene_Material1_0",
      "primitives": [
        {
          "attributes": {
            "NORMAL": 22,
            "POSITION": 21,
            "TEXCOORD_0": 23,
            "TEXCOORD_1": 24,
            "TEXCOORD_2": 25,
            "TEXCOORD_3": 26
          },
          "indices": 27,
          "material": 1,
          "mode": 4
        }
      ]
    },
    {
      "name": "BB8:BB8_Head_Scene_Material1_0",
      "primitives": [
        {
          "attributes": {
            "NORMAL": 29,
            "POSITION": 28,
            "TEXCOORD_0": 30,
            "TEXCOORD_1": 31,
            "TEXCOORD_2": 32,
            "TEXCOORD_3": 33
          },
          "indices": 34,
          "material": 1,
          "mode": 4
        }
      ]
    },
    {
      "name": "BB8:BB8_Head_Scene_Material1_0",
      "primitives": [
        {
          "attributes": {
            "NORMAL": 36,
            "POSITION": 35,
            "TEXCOORD_0": 37,
            "TEXCOORD_1": 38,
            "TEXCOORD_2": 39,
            "TEXCOORD_3": 40
          },
          "indices": 41,
          "material": 1,
          "mode": 4
        }
      ]
    },
    {
      "name": "BB8:Eye_Eye_0",
      "primitives": [
        {
          "attributes": {
            "NORMAL": 43,
            "POSITION": 42,
            "TEXCOORD_0": 44,
            "TEXCOORD_1": 45
          },
          "indices": 46,
          "material": 2,
          "mode": 4
        }
      ]
    }
  ],
  "nodes": [
    {
      "children": [
        1
      ],
      "matrix": [
        0.6944444179534912,
        0.0,
        0.0,
        0.0,
        0.0,
        1.5419763642687627e-16,
        -0.6944444179534912,
        0.0,
        0.0,
        0.6944444179534912,
        1.5419763642687627e-16,
        0.0,
        0.0,
        0.0,
        0.0,
        1.0
      ],
      "name": "Sketchfab_model"
    },
    {
      "children": [
        2
      ],
      "matrix": [
        1.0,
        0.0,
        0.0,
        0.0,
        0.0,
        0.0,
        1.0,
        0.0,
        0.0,
        -1.0,
        0.0,
        0.0,
        0.0,
        0.0,
        0.0,
        1.0
      ],
      "name": "3924ee77ba9a46c58a2abc9fdcf9971c.fbx"
    },
    {
      "children": [
        3
      ],
      "name": "Object_2"
    },
    {
      "children": [
        4
      ],
      "name": "RootNode"
    },
    {
      "children": [
        5,
        12
      ],
      "name": "BB8:BB8",
      "scale": [
        0.003995381761342287,
        0.003995381761342287,
        0.003995381761342287
      ]
    },
    {
      "children": [
        6
      ],
      "name": "BB8:Center_NeutralPose",
      "translation": [
        0.0,
        62.0,
        0.0
      ]
    },
    {
      "children": [
        7,
        10
      ],
      "name": "BB8:Center",
      "translation": [
        0.0,
        -4.973799150320701e-14,
        0.0
      ]
    },
    {
      "children": [
        8,
        9
      ],
      "name": "BB8:BB8_Body"
    },
    {
      "mesh": 0,
      "name": "BB8:BB8_Body_Scene_Material_0"
    },
    {
      "mesh": 1,
      "name": "BB8:BB8_Body_Scene_Material_0"
    },
    {
      "children": [
        11
      ],
      "name": "BB8:Hatch_Door"
    },
    {
      "mesh": 2,
      "name": "BB8:Hatch_Door_Scene_Material_0"
    },
    {
      "children": [
        13
      ],
      "name": "BB8:Center_Head_NeutralPose",
      "translation": [
        0.0,
        62.0,
        0.0
      ]
    },
    {
      "children": [
        14,
        16,
        19
      ],
      "name": "BB8:Center_Head",
      "translation": [
        0.0,
        -7.815970093361102e-14,
        0.0
      ]
    },
    {
      "children": [
        15
      ],
      "name": "BB8:Antena"
    },
    {
      "mesh": 3,
      "name": "BB8:Antena_Scene_Material1_0"
    },
    {
      "children": [
        17,
        18
      ],
      "name": "BB8:BB8_Head"
    },
    {
      "mesh": 4,
      "name": "BB8:BB8_Head_Scene_Material1_0"
    },
    {
      "mesh": 5,
      "name": "BB8:BB8_Head_Scene_Material1_0"
    },
    {
      "children": [
        20
      ],
      "name": "BB8:Eye"
    },
    {
      "mesh": 6,
      "name": "BB8:Eye_Eye_0"
    }
  ],
  "samplers": [
    {
      "magFilter": 9729,
      "minFilter": 9987,
      "wrapS": 10497,
      "wrapT": 10497
    }
  ],
  "scene": 0,
  "scenes": [
    {
      "name": "Sketchfab_Scene",
      "nodes": [
        0
      ]
    }
  ],
  "textures": [
    {
      "sampler": 0,
      "source": 0
    },
    {
      "sampler": 0,
      "source": 1
    },
    {
      "sampler": 0,
      "source": 2
    },
    {
      "sampler": 0,
      "source": 3
    },
    {
      "sampler": 0,
      "source": 4
    },
    {
      "sampler": 0,
      "source": 5
    }
  ]
}
